<?xml version="1.0" encoding="UTF-8"?>
<svg width="64px" height="64px" viewBox="0 0 64 64" version="1.1" xmlns="http://www.w3.org/2000/svg" xmlns:xlink="http://www.w3.org/1999/xlink">
    <!-- Generator: Sketch 61 (89581) - https://sketch.com -->
    <title>Group</title>
    <desc>Created with Sketch.</desc>
    <defs>
        <linearGradient x1="69.6717017%" y1="112.777083%" x2="50%" y2="0%" id="linearGradient-1">
            <stop stop-color="#F77622" offset="0%"></stop>
            <stop stop-color="#FFDD1C" offset="100%"></stop>
        </linearGradient>
    </defs>
    <g id="Symbols" stroke="none" stroke-width="1" fill="none" fill-rule="evenodd">
        <g id="Group">
            <rect id="Rectangle" fill="#FFFFFF" x="0" y="0" width="64" height="64" rx="8"></rect>
            <path d="M40.4375,48.875 L32,62 L23.5625,48.875 L23.8193277,48.8760019 C26.2914887,50.0766086 29.0671049,50.75 32,50.75 C34.9328726,50.75 37.7084686,50.0766189 40.1806152,48.8760296 L40.4375,48.875 Z M47.8232949,42.0635185 L50.7028883,50.7028883 L42.0635185,47.8232949 C44.3784818,46.3479194 46.3479194,44.3784818 47.8232949,42.0635185 Z M16.1773427,42.0645189 C17.652839,44.3793488 19.6223615,46.3486417 21.9373804,47.8238677 L13.2971117,50.7028883 L16.1773427,42.0645189 Z M32,17 C40.2842712,17 47,23.7157288 47,32 C47,40.2842712 40.2842712,47 32,47 C23.7157288,47 17,40.2842712 17,32 C17,23.7157288 23.7157288,17 32,17 Z M48.875,23.5625 L62,32 L48.875,40.4375 L48.8760296,40.1806152 C50.0766189,37.7084686 50.75,34.9328726 50.75,32 C50.75,29.0671049 50.0766086,26.2914887 48.8760019,23.8193277 L48.875,23.5625 Z M15.125,23.5625 L15.1239981,23.8193277 C13.9233914,26.2914887 13.25,29.0671049 13.25,32 C13.25,34.933668 13.9237464,37.7099742 15.1249474,40.1826266 L15.125,40.4375 L2,32 L15.125,23.5625 Z M50.7028883,13.2971117 L47.8238677,21.9373804 C46.3486417,19.6223615 44.3793488,17.652839 42.0645189,16.1773427 L50.7028883,13.2971117 Z M13.2971117,13.2971117 L21.9363837,16.1767674 C19.6214953,17.6521153 17.6521153,19.6214953 16.1767674,21.9363837 L13.2971117,13.2971117 Z M32,2 L40.4375,15.125 L40.1826266,15.1249474 C37.7099742,13.9237464 34.933668,13.25 32,13.25 C29.0663066,13.25 26.2899778,13.923758 23.8173092,15.1249786 L23.5625,15.125 L32,2 Z" id="Combined-Shape-Copy-2" stroke-opacity="0.07" stroke="#6F5732" fill="url(#linearGradient-1)" stroke-linejoin="round"></path>
        </g>
    </g>
</svg>