<?xml version="1.0" encoding="utf-8"?>
<svg xmlns="http://www.w3.org/2000/svg" viewBox="0 0 64 64">
<linearGradient id="gradient" gradientUnits="userSpaceOnUse" x1="-92.8046" y1="158.2741" x2="-93.0013" y2="159.4019" gradientTransform="matrix(60 0 0 -60 5607 9567)">
	<stop offset="0" style="stop-color:#F77622"/>
	<stop offset="1" style="stop-color:#FFDD1C"/>
</linearGradient>
<path fill="url(#gradient)" d="M40.4,48.9L32,62l-8.4-13.1l0.3,0c2.5,1.2,5.2,1.9,8.2,1.9c2.9,0,5.7-0.7,8.2-1.9L40.4,48.9z M47.8,42.1
	l2.9,8.6l-8.6-2.9C44.4,46.3,46.3,44.4,47.8,42.1z M16.2,42.1c1.5,2.3,3.4,4.3,5.8,5.8l-8.6,2.9L16.2,42.1z M32,17
	c8.3,0,15,6.7,15,15s-6.7,15-15,15s-15-6.7-15-15S23.7,17,32,17z M48.9,23.6L62,32l-13.1,8.4l0-0.3c1.2-2.5,1.9-5.2,1.9-8.2
	c0-2.9-0.7-5.7-1.9-8.2L48.9,23.6z M15.1,23.6l0,0.3c-1.2,2.5-1.9,5.2-1.9,8.2c0,2.9,0.7,5.7,1.9,8.2l0,0.3L2,32L15.1,23.6z
	M50.7,13.3l-2.9,8.6c-1.5-2.3-3.4-4.3-5.8-5.8L50.7,13.3z M13.3,13.3l8.6,2.9c-2.3,1.5-4.3,3.4-5.8,5.8L13.3,13.3z M32,2
	l8.4,13.1l-0.3,0c-2.5-1.2-5.2-1.9-8.2-1.9c-2.9,0-5.7,0.7-8.2,1.9l-0.3,0L32,2z"/>
<path fill="#6F5732" opacity="7.000000e-02" d="M32,2.9l7.2,11.2c-2.3-0.9-4.7-1.4-7.2-1.4c-2.5,0-4.9,0.5-7.2,1.4L32,2.9 M14.1,14.1l6.7,2.2
	c-1.7,1.2-3.3,2.8-4.5,4.5L14.1,14.1 M49.9,14.1l-2.2,6.7c-1.2-1.7-2.8-3.3-4.5-4.5L49.9,14.1 M32,17.5c8,0,14.5,6.5,14.5,14.5
	S40,46.5,32,46.5S17.5,40,17.5,32S24,17.5,32,17.5 M49.9,24.8L61.1,32l-11.2,7.2c0.9-2.3,1.4-4.7,1.4-7.2
	C51.3,29.5,50.8,27.1,49.9,24.8 M14.1,24.8c-0.9,2.3-1.4,4.7-1.4,7.2c0,2.5,0.5,4.9,1.4,7.2L2.9,32L14.1,24.8 M47.7,43.2
	l2.2,6.7l-6.7-2.2C44.9,46.4,46.4,44.9,47.7,43.2 M16.3,43.2c1.2,1.7,2.8,3.3,4.5,4.5l-6.7,2.2L16.3,43.2 M24.8,49.9
	c2.3,0.9,4.7,1.4,7.2,1.4c2.5,0,4.9-0.5,7.2-1.4L32,61.1L24.8,49.9 M32,2l-8.4,13.1l0.3,0c2.5-1.2,5.2-1.9,8.2-1.9
	c2.9,0,5.7,0.7,8.2,1.9l0.3,0L32,2L32,2z M50.7,13.3l-8.6,2.9c2.3,1.5,4.3,3.4,5.8,5.8L50.7,13.3L50.7,13.3z M13.3,13.3l2.9,8.6
	c1.5-2.3,3.4-4.3,5.8-5.8L13.3,13.3L13.3,13.3z M32,17c-8.3,0-15,6.7-15,15s6.7,15,15,15s15-6.7,15-15S40.3,17,32,17L32,17z
	M48.9,23.6l0,0.3c1.2,2.5,1.9,5.2,1.9,8.2c0,2.9-0.7,5.7-1.9,8.2l0,0.3L62,32L48.9,23.6L48.9,23.6z M15.1,23.6L2,32l13.1,8.4
	l0-0.3c-1.2-2.5-1.9-5.2-1.9-8.2c0-2.9,0.7-5.7,1.9-8.2L15.1,23.6L15.1,23.6z M47.8,42.1c-1.5,2.3-3.4,4.3-5.8,5.8l8.6,2.9
	L47.8,42.1L47.8,42.1z M16.2,42.1l-2.9,8.6l8.6-2.9C19.6,46.3,17.7,44.4,16.2,42.1L16.2,42.1z M40.4,48.9l-0.3,0
	c-2.5,1.2-5.2,1.9-8.2,1.9c-2.9,0-5.7-0.7-8.2-1.9l-0.3,0L32,62L40.4,48.9L40.4,48.9z"/>
</svg>
